<svg width="24" height="22" viewBox="0 0 24 22" fill="none" xmlns="http://www.w3.org/2000/svg">
<path fill-rule="evenodd" clip-rule="evenodd" d="M10.8333 0.5H13.1666C18.9656 0.5 23.6666 5.20101 23.6666 11C23.6666 16.799 18.9656 21.5 13.1666 21.5H4.99992C2.42259 21.5 0.333252 19.4107 0.333252 16.8333V11C0.333252 5.20101 5.03426 0.5 10.8333 0.5ZM7.33325 14.2083C6.85 14.2083 6.45825 13.8166 6.45825 13.3333C6.45825 12.8501 6.85 12.4583 7.33325 12.4583H11.9999C12.4832 12.4583 12.8749 12.8501 12.8749 13.3333C12.8749 13.8166 12.4832 14.2083 11.9999 14.2083H7.33325ZM7.33325 9.54167C6.85 9.54167 6.45825 9.14992 6.45825 8.66667C6.45825 8.18342 6.85 7.79167 7.33325 7.79167H16.6666C17.1498 7.79167 17.5416 8.18342 17.5416 8.66667C17.5416 9.14992 17.1498 9.54167 16.6666 9.54167H7.33325Z" fill="#D6D5DB"/>
</svg>
