<svg width="22" height="24" viewBox="0 0 22 24" fill="none" xmlns="http://www.w3.org/2000/svg">
<path fill-rule="evenodd" clip-rule="evenodd" d="M21.5 9.8427V18.962C21.5 21.5607 19.4107 23.6673 16.8333 23.6673H5.16667C2.58934 23.6673 0.5 21.5607 0.5 18.962V9.8427C0.5 8.42992 1.12959 7.0919 2.21484 6.19826L8.04817 1.39489C9.76602 -0.019649 12.234 -0.0196519 13.9518 1.39489L19.7852 6.19826C20.8704 7.0919 21.5 8.42992 21.5 9.8427ZM8.66667 18.1257C8.18342 18.1257 7.79167 18.5174 7.79167 19.0007C7.79167 19.4839 8.18342 19.8757 8.66667 19.8757H13.3333C13.8166 19.8757 14.2083 19.4839 14.2083 19.0007C14.2083 18.5174 13.8166 18.1257 13.3333 18.1257H8.66667Z" fill="#D6D5DB"/>
</svg>
