<svg width="24" height="22" viewBox="0 0 24 22" fill="none" xmlns="http://www.w3.org/2000/svg">
<path fill-rule="evenodd" clip-rule="evenodd" d="M0.333252 5.16667C0.333252 2.58934 2.42259 0.5 4.99992 0.5H18.9999C21.5772 0.5 23.6666 2.58934 23.6666 5.16667V6.91667H18.9999C16.7448 6.91667 14.9166 8.74484 14.9166 11C14.9166 13.2552 16.7448 15.0833 18.9999 15.0833H23.6666V16.8333C23.6666 19.4107 21.5772 21.5 18.9999 21.5H4.99992C2.42259 21.5 0.333252 19.4107 0.333252 16.8333V5.16667ZM18.9999 13.3333L23.6666 13.3333V8.66667H18.9999C17.7113 8.66667 16.6666 9.71134 16.6666 11C16.6666 12.2887 17.7113 13.3333 18.9999 13.3333Z" fill="#D6D5DB"/>
</svg>
