<svg width="21" height="20" viewBox="0 0 21 20" fill="none" xmlns="http://www.w3.org/2000/svg">
<path fill-rule="evenodd" clip-rule="evenodd" d="M20.5 10C20.5 15.5228 16.0228 20 10.5 20C4.97715 20 0.5 15.5228 0.5 10C0.5 4.47715 4.97715 0 10.5 0C16.0228 0 20.5 4.47715 20.5 10ZM9.5 15C9.5 14.4477 9.94772 14 10.5 14C11.0523 14 11.5 14.4477 11.5 15C11.5 15.5523 11.0523 16 10.5 16C9.94772 16 9.5 15.5523 9.5 15ZM9.75 12C9.75 12.4142 10.0858 12.75 10.5 12.75C10.9142 12.75 11.25 12.4142 11.25 12L11.25 5C11.25 4.58579 10.9142 4.25 10.5 4.25C10.0858 4.25 9.75 4.58579 9.75 5L9.75 12Z" fill="white"/>
</svg>
